<?xml version='1.0' encoding='utf-8'?>
<svg xmlns="http://www.w3.org/2000/svg" version="1.1" viewBox="0 0 738.44 269.36">
 <path d="m736.94 214.04s-61.909 55.911-187.09 53.76c-125.17-2.15-227.94-105.37-367.71-104.29-139.78 1.07-180.64 53.76-180.64 53.76v-162s40.858-52.685 180.64-53.76c139.77-1.0769 242.54 102.14 367.72 104.29 125.17 2.15 187.08-53.757 187.08-53.757z" fill="#999"/>
 <text x="-455.05075" y="-1139.9999"><tspan x="-455.05075" y="-1139.9999"/></text>
 <path d="m1.5 55.269s40.858-52.685 180.64-53.76c139.77-1.0759 242.54 102.14 367.72 104.29 125.17 2.15 187.08-53.757 187.08-53.757" fill="none" stroke="#000" stroke-dashoffset="13" stroke-width="3"/>
 <path d="m1.5 217.27s40.858-52.685 180.64-53.76c139.78-1.0752 242.54 102.14 367.72 104.3 125.18 2.1504 187.09-53.76 187.09-53.76" fill="none" stroke="#000" stroke-dashoffset="13" stroke-width="3"/>
 <path d="m736.94 136.04s-61.909 55.911-187.09 53.76c-125.17-2.15-227.94-105.37-367.71-104.29-139.78 1.074-180.64 53.76-180.64 53.76v-10s40.858-52.685 180.64-53.76c139.78-1.0752 242.54 102.14 367.72 104.3 125.18 2.1504 187.09-53.76 187.09-53.76z" fill="#fff"/>
 <path d="m1.5 139.27s40.858-52.685 180.64-53.76c139.78-1.0752 242.54 102.14 367.72 104.3 125.18 2.1504 187.09-53.76 187.09-53.76" fill="none" stroke="#000" stroke-dashoffset="13" stroke-width="3"/>
 <path d="m1.5 129.27s40.858-52.685 180.64-53.76c139.78-1.0752 242.54 102.14 367.72 104.3 125.18 2.1504 187.09-53.76 187.09-53.76" fill="none" stroke="#000" stroke-dashoffset="13" stroke-width="3"/>
</svg>